<mxfile host="app.diagrams.net" agent="Mozilla/5.0 (Windows NT 10.0; Win64; x64; rv:133.0) Gecko/20100101 Firefox/133.0" version="25.0.3">
  <diagram name="Страница — 1" id="3onLgxNgP_EYS09DSs-Q">
    <mxGraphModel dx="1050" dy="566" grid="1" gridSize="10" guides="1" tooltips="1" connect="1" arrows="1" fold="1" page="1" pageScale="1" pageWidth="827" pageHeight="1169" math="0" shadow="0">
      <root>
        <mxCell id="0" />
        <mxCell id="1" parent="0" />
        <mxCell id="j1zP5GOGr3KpuVCVJosY-1" style="edgeStyle=orthogonalEdgeStyle;rounded=0;orthogonalLoop=1;jettySize=auto;html=1;entryX=0.5;entryY=0;entryDx=0;entryDy=0;" parent="1" source="j1zP5GOGr3KpuVCVJosY-2" target="j1zP5GOGr3KpuVCVJosY-4" edge="1">
          <mxGeometry relative="1" as="geometry" />
        </mxCell>
        <mxCell id="j1zP5GOGr3KpuVCVJosY-2" value="&lt;font style=&quot;font-size: 21px;&quot;&gt;Start&lt;/font&gt;" style="rounded=1;whiteSpace=wrap;html=1;glass=0;shadow=0;arcSize=50;" parent="1" vertex="1">
          <mxGeometry x="370" y="10" width="130" height="60" as="geometry" />
        </mxCell>
        <mxCell id="j1zP5GOGr3KpuVCVJosY-3" value="" style="edgeStyle=orthogonalEdgeStyle;rounded=0;orthogonalLoop=1;jettySize=auto;html=1;" parent="1" source="j1zP5GOGr3KpuVCVJosY-4" edge="1">
          <mxGeometry relative="1" as="geometry">
            <mxPoint x="435" y="170" as="targetPoint" />
          </mxGeometry>
        </mxCell>
        <mxCell id="j1zP5GOGr3KpuVCVJosY-4" value="MessageID" style="shape=parallelogram;perimeter=parallelogramPerimeter;whiteSpace=wrap;html=1;fixedSize=1;size=12.5;" parent="1" vertex="1">
          <mxGeometry x="367.5" y="90" width="135" height="60" as="geometry" />
        </mxCell>
        <mxCell id="j1zP5GOGr3KpuVCVJosY-5" style="edgeStyle=orthogonalEdgeStyle;rounded=0;orthogonalLoop=1;jettySize=auto;html=1;entryX=0.5;entryY=0;entryDx=0;entryDy=0;" parent="1" edge="1">
          <mxGeometry relative="1" as="geometry">
            <mxPoint x="435" y="230" as="sourcePoint" />
          </mxGeometry>
        </mxCell>
        <mxCell id="j1zP5GOGr3KpuVCVJosY-14" style="edgeStyle=orthogonalEdgeStyle;rounded=0;orthogonalLoop=1;jettySize=auto;html=1;entryX=0.5;entryY=0;entryDx=0;entryDy=0;" parent="1" source="j1zP5GOGr3KpuVCVJosY-15" target="j1zP5GOGr3KpuVCVJosY-17" edge="1">
          <mxGeometry relative="1" as="geometry" />
        </mxCell>
        <mxCell id="j1zP5GOGr3KpuVCVJosY-15" value="Database delete record request" style="whiteSpace=wrap;html=1;" parent="1" vertex="1">
          <mxGeometry x="375" y="170" width="120" height="60" as="geometry" />
        </mxCell>
        <mxCell id="j1zP5GOGr3KpuVCVJosY-16" style="edgeStyle=orthogonalEdgeStyle;rounded=0;orthogonalLoop=1;jettySize=auto;html=1;exitX=0.5;exitY=1;exitDx=0;exitDy=0;entryX=0.5;entryY=0;entryDx=0;entryDy=0;" parent="1" source="j1zP5GOGr3KpuVCVJosY-17" target="j1zP5GOGr3KpuVCVJosY-22" edge="1">
          <mxGeometry relative="1" as="geometry" />
        </mxCell>
        <mxCell id="j1zP5GOGr3KpuVCVJosY-17" value="&lt;div&gt;Request result&lt;/div&gt;&lt;div&gt;status&lt;br&gt;&lt;/div&gt;" style="shape=parallelogram;perimeter=parallelogramPerimeter;whiteSpace=wrap;html=1;fixedSize=1;size=15;" parent="1" vertex="1">
          <mxGeometry x="375" y="260" width="120" height="60" as="geometry" />
        </mxCell>
        <mxCell id="j1zP5GOGr3KpuVCVJosY-18" style="edgeStyle=orthogonalEdgeStyle;rounded=0;orthogonalLoop=1;jettySize=auto;html=1;entryX=0.5;entryY=1;entryDx=0;entryDy=0;" parent="1" source="j1zP5GOGr3KpuVCVJosY-22" target="eH3EdeLL9966zNrrHdCZ-1" edge="1">
          <mxGeometry relative="1" as="geometry">
            <mxPoint x="717.8" y="349.9999999999999" as="targetPoint" />
            <Array as="points">
              <mxPoint x="620" y="410" />
            </Array>
          </mxGeometry>
        </mxCell>
        <mxCell id="j1zP5GOGr3KpuVCVJosY-19" value="&lt;div&gt;No&lt;/div&gt;" style="edgeLabel;html=1;align=center;verticalAlign=middle;resizable=0;points=[];" parent="j1zP5GOGr3KpuVCVJosY-18" vertex="1" connectable="0">
          <mxGeometry x="-0.7344" relative="1" as="geometry">
            <mxPoint as="offset" />
          </mxGeometry>
        </mxCell>
        <mxCell id="j1zP5GOGr3KpuVCVJosY-20" value="" style="edgeStyle=orthogonalEdgeStyle;rounded=0;orthogonalLoop=1;jettySize=auto;html=1;entryX=0.5;entryY=0;entryDx=0;entryDy=0;exitX=0;exitY=0.5;exitDx=0;exitDy=0;" parent="1" source="j1zP5GOGr3KpuVCVJosY-22" target="j1zP5GOGr3KpuVCVJosY-26" edge="1">
          <mxGeometry relative="1" as="geometry">
            <mxPoint x="480.00000000000045" y="610.0000000000002" as="sourcePoint" />
            <mxPoint x="435" y="690" as="targetPoint" />
            <Array as="points">
              <mxPoint x="435" y="410" />
            </Array>
          </mxGeometry>
        </mxCell>
        <mxCell id="j1zP5GOGr3KpuVCVJosY-21" value="Yes" style="edgeLabel;html=1;align=center;verticalAlign=middle;resizable=0;points=[];" parent="j1zP5GOGr3KpuVCVJosY-20" vertex="1" connectable="0">
          <mxGeometry x="-0.46" y="3" relative="1" as="geometry">
            <mxPoint as="offset" />
          </mxGeometry>
        </mxCell>
        <mxCell id="j1zP5GOGr3KpuVCVJosY-22" value="result status &lt;br&gt;is success?" style="rhombus;whiteSpace=wrap;html=1;" parent="1" vertex="1">
          <mxGeometry x="460" y="370" width="125.62" height="80" as="geometry" />
        </mxCell>
        <mxCell id="j1zP5GOGr3KpuVCVJosY-23" style="edgeStyle=orthogonalEdgeStyle;rounded=0;orthogonalLoop=1;jettySize=auto;html=1;exitX=0.5;exitY=0;exitDx=0;exitDy=0;" parent="1" source="eH3EdeLL9966zNrrHdCZ-1" edge="1">
          <mxGeometry relative="1" as="geometry">
            <mxPoint x="440" y="80" as="targetPoint" />
            <Array as="points">
              <mxPoint x="620" y="80" />
            </Array>
            <mxPoint x="720" y="289.9999999999999" as="sourcePoint" />
          </mxGeometry>
        </mxCell>
        <mxCell id="j1zP5GOGr3KpuVCVJosY-25" style="edgeStyle=orthogonalEdgeStyle;rounded=0;orthogonalLoop=1;jettySize=auto;html=1;exitX=0.5;exitY=1;exitDx=0;exitDy=0;entryX=0.5;entryY=0;entryDx=0;entryDy=0;" parent="1" source="j1zP5GOGr3KpuVCVJosY-26" edge="1">
          <mxGeometry relative="1" as="geometry">
            <mxPoint x="435" y="572.5" as="targetPoint" />
          </mxGeometry>
        </mxCell>
        <mxCell id="j1zP5GOGr3KpuVCVJosY-26" value="Send code 1" style="whiteSpace=wrap;html=1;" parent="1" vertex="1">
          <mxGeometry x="375" y="492.5" width="120" height="60" as="geometry" />
        </mxCell>
        <mxCell id="j1zP5GOGr3KpuVCVJosY-27" style="edgeStyle=orthogonalEdgeStyle;rounded=0;orthogonalLoop=1;jettySize=auto;html=1;entryX=0.5;entryY=0;entryDx=0;entryDy=0;" parent="1" target="j1zP5GOGr3KpuVCVJosY-29" edge="1">
          <mxGeometry relative="1" as="geometry">
            <mxPoint x="435" y="632.5" as="sourcePoint" />
          </mxGeometry>
        </mxCell>
        <mxCell id="j1zP5GOGr3KpuVCVJosY-29" value="End" style="rounded=1;whiteSpace=wrap;html=1;glass=0;shadow=0;arcSize=50;" parent="1" vertex="1">
          <mxGeometry x="370" y="652.5" width="130" height="60" as="geometry" />
        </mxCell>
        <mxCell id="eH3EdeLL9966zNrrHdCZ-1" value="Warning (&quot;The error occurred, please try again&quot;)" style="shape=parallelogram;perimeter=parallelogramPerimeter;whiteSpace=wrap;html=1;fixedSize=1;" vertex="1" parent="1">
          <mxGeometry x="560" y="180" width="120" height="60" as="geometry" />
        </mxCell>
        <mxCell id="eH3EdeLL9966zNrrHdCZ-2" value="Updating Reciever and User clients without deleted messages" style="shape=parallelogram;perimeter=parallelogramPerimeter;whiteSpace=wrap;html=1;fixedSize=1;" vertex="1" parent="1">
          <mxGeometry x="375" y="570" width="120" height="60" as="geometry" />
        </mxCell>
      </root>
    </mxGraphModel>
  </diagram>
</mxfile>
